<?xml version="1.0" encoding="iso-8859-1"?>
<!-- Generator: Adobe Illustrator 19.0.0, SVG Export Plug-In . SVG Version: 6.00 Build 0)  -->
<svg version="1.1" id="Layer_1" xmlns="http://www.w3.org/2000/svg" xmlns:xlink="http://www.w3.org/1999/xlink" x="0px" y="0px"
	 viewBox="0 0 512 512" style="enable-background:new 0 0 512 512;" xml:space="preserve">
<g>
	<g>
		<path d="M267.802,433.218c-4.293-5.505-5.892-11.202-6.297-12.905v-35.546c10.355-1.521,18.877-5.911,25.396-13.121
			c15.461-17.104,13.101-43.738,12.994-44.864l-0.717-7.47h-91.955l-0.732,7.451c-0.111,1.125-2.53,27.767,12.902,44.878
			c6.554,7.266,15.142,11.671,25.596,13.161v35.574c-0.835,3.893-6.785,25.56-35.785,25.56v16.516
			c22.401,0,36.231-10.106,44.043-21.068c7.812,10.963,21.642,21.068,44.043,21.068v-16.516
			C284.305,445.935,274.384,441.657,267.802,433.218z M253.137,368.86h-0.091c-9.386-0.052-16.367-2.745-21.344-8.233
			c-6.522-7.191-8.34-17.745-8.773-24.8h60.492c-0.461,7.054-2.307,17.59-8.771,24.741
			C269.649,366.1,262.635,368.813,253.137,368.86z"/>
	</g>
</g>
<g>
	<g>
		<path d="M437.677,74.323C437.677,33.341,404.337,0,363.355,0c-40.982,0-74.323,33.341-74.323,74.323v83.586
			c-12.079-2.524-23.871-3.758-35.785-3.758c-10.07,0-20.055,0.878-30.28,2.672v-82.5C222.968,33.341,189.627,0,148.645,0
			c-40.982,0-74.323,33.341-74.323,74.323v49.543h16.516V74.323c0-31.875,25.931-57.806,57.806-57.806
			c31.875,0,57.806,25.931,57.806,57.806v102.975l10.11-2.327c12.587-2.896,24.587-4.304,36.686-4.304
			c13.848,0,27.562,1.854,41.922,5.668l10.379,2.757V74.323c0-31.875,25.932-57.806,57.806-57.806
			c31.874,0,57.806,25.931,57.806,57.806v154.151c0,14.101-5.234,27.707-14.738,38.311l-3.369,3.759l1.809,4.711
			c7.161,18.665,10.793,38.119,10.793,57.822c0,89.553-72.856,162.409-162.409,162.409S90.839,422.629,90.839,333.076
			c0-21.547,4.159-42.486,12.362-62.236l1.794-4.32l-2.782-3.76c-7.44-10.056-11.373-21.913-11.373-34.287V145.89H74.323v82.583
			c0,14.378,4.111,28.197,11.935,40.25c-7.922,20.522-11.935,42.147-11.935,64.352c0,98.66,80.265,178.925,178.925,178.925
			s178.925-80.265,178.925-178.925c0-20.121-3.429-39.997-10.199-59.151c10.161-13.004,15.705-28.957,15.705-45.451V74.323z"/>
	</g>
</g>
<g>
	<g>
		<path d="M196.03,237.427l-32.681-16.34l-7.386,14.772l33.032,16.516l0.199,0.229l0.744,0.185
			c1.388,0.685,11.007,6.317,11.007,30.738h16.516C217.462,248.31,200.276,239.151,196.03,237.427z"/>
	</g>
</g>
<g>
	<g>
		<path d="M343.145,221.087l-32.679,16.34c-4.247,1.724-21.434,10.883-21.434,46.1h16.516c0-24.21,9.453-29.955,10.969-30.719
			l0.17-0.025l33.845-16.924L343.145,221.087z"/>
	</g>
</g>
<g>
	<g>
		<path d="M124.118,72.32l-0.247,0.987v144.156h16.516V75.511c1.151-3.526,5.913-14.951,19.269-14.951V44.043
			C137.137,44.043,126.562,62.539,124.118,72.32z"/>
	</g>
</g>
<g>
	<g>
		<path d="M387.882,72.32c-2.444-9.781-13.019-28.277-35.538-28.277v16.516c13.398,0,18.147,11.499,19.269,14.942v141.962h16.516
			V73.306L387.882,72.32z"/>
	</g>
</g>
<g>
	<g>
		<rect x="121.118" y="313.806" width="27.527" height="16.516"/>
	</g>
</g>
<g>
	<g>
		<rect x="143.14" y="346.839" width="27.527" height="16.516"/>
	</g>
</g>
<g>
	<g>
		<rect x="330.323" y="346.839" width="27.527" height="16.516"/>
	</g>
</g>
<g>
	<g>
		<rect x="352.344" y="313.806" width="27.527" height="16.516"/>
	</g>
</g>
<g>
</g>
<g>
</g>
<g>
</g>
<g>
</g>
<g>
</g>
<g>
</g>
<g>
</g>
<g>
</g>
<g>
</g>
<g>
</g>
<g>
</g>
<g>
</g>
<g>
</g>
<g>
</g>
<g>
</g>
</svg>
